<!--  -->

<svg xmlns="http://www.w3.org/2000/svg" width="24" height="24" viewBox="0 0 1024 1024">
    <path
        d="M747.872 944.928s10.72-64.384-55.392-143.008c64.352-180.512 73.28-344.896 73.28-344.896s132.256 30.4 132.256 160.832c-.032 223.392-150.144 327.072-150.144 327.072zm-364.544-78.432S294.752 582.24 294.752 464.32c0-53.056 5.984-100.256 15.296-143.104h403.52c9.376 42.88 15.392 90.112 15.392 143.136 0 116.128-88.32 402.144-88.32 402.144H383.328zM511.68 386.208c-45.376 0-82.176 36.8-82.176 82.208 0 45.376 36.8 82.208 82.176 82.208 45.408 0 82.208-36.8 82.208-82.208.032-45.408-36.8-82.208-82.208-82.208zM494.016 19.072V-92.864h32V16.224c36.576 26.624 135.552 111.296 180.32 274.4h-389.12C360.48 132 454.688 48.256 494.016 19.072zM276.128 944.928s-150.112-103.68-150.112-327.072c0-130.432 132.256-160.832 132.256-160.832S267.2 621.408 331.52 801.92c-66.144 78.656-55.392 143.008-55.392 143.008zm289.984 16.512-26.816-26.816L510.72 1024l-33.984-89.376-23.232 46.432-33.984-84h184.064l-37.472 64.384z"
        fill="#494ee0" stroke="#000000" stroke-width="1" />
</svg>